HIERARCHY
ROOT Hips
{
	OFFSET -14.64140 90.27770 -84.91600
	CHANNELS 6 Xposition Yposition Zposition Zrotation Xrotation Yrotation
	JOINT Spine
	{
		OFFSET 0.00000 13.20850 -1.60436
		CHANNELS 3 Zrotation Xrotation Yrotation
		JOINT Spine1
		{
			OFFSET 0.00000 8.61716 0.00000
			CHANNELS 3 Zrotation Xrotation Yrotation
			JOINT Spine2
			{
				OFFSET 0.00000 8.61717 0.00000
				CHANNELS 3 Zrotation Xrotation Yrotation
				JOINT Spine3
				{
					OFFSET 0.00000 8.61717 0.00000
					CHANNELS 3 Zrotation Xrotation Yrotation
					JOINT Neck
					{
						OFFSET 0.00000 11.07920 1.10792
						CHANNELS 3 Zrotation Xrotation Yrotation
						JOINT Neck1
						{
							OFFSET 0.00000 7.08032 0.00000
							CHANNELS 3 Zrotation Xrotation Yrotation
							JOINT Head
							{
								OFFSET 0.00000 7.08031 0.00000
								CHANNELS 3 Zrotation Xrotation Yrotation
								End site
								{
									OFFSET 0.00000 0.00000 0.00000
								}
							}
						}
					}
					JOINT RightShoulder
					{
						OFFSET -0.01000 7.91373 5.19711
						CHANNELS 3 Zrotation Xrotation Yrotation
						JOINT RightArm
						{
							OFFSET -18.41580 0.00000 0.00000
							CHANNELS 3 Zrotation Xrotation Yrotation
							JOINT RightForeArm
							{
								OFFSET -29.11090 0.00000 0.00000
								CHANNELS 3 Zrotation Xrotation Yrotation
								JOINT RightHand
								{
									OFFSET -24.65040 0.00000 0.00000
									CHANNELS 3 Zrotation Xrotation Yrotation
									JOINT RightHandThumb1
									{
										OFFSET -5.35114 -0.85590 3.97906
										CHANNELS 3 Zrotation Xrotation Yrotation
										JOINT RightHandThumb2
										{
											OFFSET -4.52789 0.00000 0.00000
											CHANNELS 3 Zrotation Xrotation Yrotation
											JOINT RightHandThumb3
											{
												OFFSET -2.46976 0.00000 0.00000
												CHANNELS 3 Zrotation Xrotation Yrotation
												End site
												{
													OFFSET 0.00000 0.00000 0.00000
												}
											}
										}
									}
									JOINT RightHandIndex1
									{
										OFFSET -14.26970 0.00000 2.88139
										CHANNELS 3 Zrotation Xrotation Yrotation
										JOINT RightHandIndex2
										{
											OFFSET -5.48836 0.00000 0.00000
											CHANNELS 3 Zrotation Xrotation Yrotation
											JOINT RightHandIndex3
											{
												OFFSET -3.01859 0.00000 0.00000
												CHANNELS 3 Zrotation Xrotation Yrotation
												End site
												{
													OFFSET 0.00000 0.00000 0.00000
												}
											}
										}
									}
									JOINT RightHandMiddle1
									{
										OFFSET -14.26970 0.00000 -0.09147
										CHANNELS 3 Zrotation Xrotation Yrotation
										JOINT RightHandMiddle2
										{
											OFFSET -6.17441 0.00000 0.00000
											CHANNELS 3 Zrotation Xrotation Yrotation
											JOINT RightHandMiddle3
											{
												OFFSET -3.56743 0.00000 0.00000
												CHANNELS 3 Zrotation Xrotation Yrotation
												End site
												{
													OFFSET 0.00000 0.00000 0.00000
												}
											}
										}
									}
									JOINT RightHandRing1
									{
										OFFSET -12.69180 0.00000 -3.06433
										CHANNELS 3 Zrotation Xrotation Yrotation
										JOINT RightHandRing2
										{
											OFFSET -5.62556 0.00000 0.00000
											CHANNELS 3 Zrotation Xrotation Yrotation
											JOINT RightHandRing3
											{
												OFFSET -3.56744 0.00000 0.00000
												CHANNELS 3 Zrotation Xrotation Yrotation
												End site
												{
													OFFSET 0.00000 0.00000 0.00000
												}
											}
										}
									}
									JOINT RightHandPinky1
									{
										OFFSET -11.11390 0.00000 -6.03719
										CHANNELS 3 Zrotation Xrotation Yrotation
										JOINT RightHandPinky2
										{
											OFFSET -4.52789 0.00000 0.00000
											CHANNELS 3 Zrotation Xrotation Yrotation
											JOINT RightHandPinky3
											{
												OFFSET -2.46976 0.00000 0.00000
												CHANNELS 3 Zrotation Xrotation Yrotation
												End site
												{
													OFFSET 0.00000 0.00000 0.00000
												}
											}
										}
									}
								}
							}
						}
					}
					JOINT LeftShoulder
					{
						OFFSET 0.01000 7.91373 5.19711
						CHANNELS 3 Zrotation Xrotation Yrotation
						JOINT LeftArm
						{
							OFFSET 18.41580 0.00000 0.00000
							CHANNELS 3 Zrotation Xrotation Yrotation
							JOINT LeftForeArm
							{
								OFFSET 29.11090 0.00000 0.00000
								CHANNELS 3 Zrotation Xrotation Yrotation
								JOINT LeftHand
								{
									OFFSET 24.65040 0.00000 0.00000
									CHANNELS 3 Zrotation Xrotation Yrotation
									JOINT LeftHandThumb1
									{
										OFFSET 5.35114 -0.85590 3.97906
										CHANNELS 3 Zrotation Xrotation Yrotation
										JOINT LeftHandThumb2
										{
											OFFSET 4.52789 0.00000 0.00000
											CHANNELS 3 Zrotation Xrotation Yrotation
											JOINT LeftHandThumb3
											{
												OFFSET 2.46977 0.00000 0.00000
												CHANNELS 3 Zrotation Xrotation Yrotation
												End site
												{
													OFFSET 0.00000 0.00000 0.00000
												}
											}
										}
									}
									JOINT LeftHandIndex1
									{
										OFFSET 14.26970 0.00000 2.88139
										CHANNELS 3 Zrotation Xrotation Yrotation
										JOINT LeftHandIndex2
										{
											OFFSET 5.48836 0.00000 0.00000
											CHANNELS 3 Zrotation Xrotation Yrotation
											JOINT LeftHandIndex3
											{
												OFFSET 3.01859 0.00000 0.00000
												CHANNELS 3 Zrotation Xrotation Yrotation
												End site
												{
													OFFSET 0.00000 0.00000 0.00000
												}
											}
										}
									}
									JOINT LeftHandMiddle1
									{
										OFFSET 14.26970 0.00000 -0.09147
										CHANNELS 3 Zrotation Xrotation Yrotation
										JOINT LeftHandMiddle2
										{
											OFFSET 6.17440 0.00000 0.00000
											CHANNELS 3 Zrotation Xrotation Yrotation
											JOINT LeftHandMiddle3
											{
												OFFSET 3.56744 0.00000 0.00000
												CHANNELS 3 Zrotation Xrotation Yrotation
												End site
												{
													OFFSET 0.00000 0.00000 0.00000
												}
											}
										}
									}
									JOINT LeftHandRing1
									{
										OFFSET 12.69180 0.00000 -3.06433
										CHANNELS 3 Zrotation Xrotation Yrotation
										JOINT LeftHandRing2
										{
											OFFSET 5.62556 0.00000 0.00000
											CHANNELS 3 Zrotation Xrotation Yrotation
											JOINT LeftHandRing3
											{
												OFFSET 3.56744 0.00000 0.00000
												CHANNELS 3 Zrotation Xrotation Yrotation
												End site
												{
													OFFSET 0.00000 0.00000 0.00000
												}
											}
										}
									}
									JOINT LeftHandPinky1
									{
										OFFSET 11.11390 0.00000 -6.03719
										CHANNELS 3 Zrotation Xrotation Yrotation
										JOINT LeftHandPinky2
										{
											OFFSET 4.52789 0.00000 0.00000
											CHANNELS 3 Zrotation Xrotation Yrotation
											JOINT LeftHandPinky3
											{
												OFFSET 2.46976 0.00000 0.00000
												CHANNELS 3 Zrotation Xrotation Yrotation
												End site
												{
													OFFSET 0.00000 0.00000 0.00000
												}
											}
										}
									}
								}
							}
						}
					}
					JOINT pCube4
					{
						OFFSET 0.00000 10.91090 1.10792
						CHANNELS 3 Zrotation Xrotation Yrotation
						End site
						{
							OFFSET 0.00000 0.00000 0.00000
						}
					}
				}
			}
		}
	}
	JOINT RightUpLeg
	{
		OFFSET -9.98441 0.00000 0.00000
		CHANNELS 3 Zrotation Xrotation Yrotation
		JOINT RightLeg
		{
			OFFSET 0.00000 -42.11790 0.00000
			CHANNELS 3 Zrotation Xrotation Yrotation
			JOINT RightFoot
			{
				OFFSET 0.00000 -45.00020 -0.00001
				CHANNELS 3 Zrotation Xrotation Yrotation
				JOINT RightForeFoot
				{
					OFFSET 0.00000 -3.74820 0.00000
					CHANNELS 3 Zrotation Xrotation Yrotation
					JOINT RightToeBase
					{
						OFFSET 0.00000 0.06325 14.43120
						CHANNELS 3 Zrotation Xrotation Yrotation
						End site
						{
							OFFSET 0.00000 0.00000 0.00000
						}
					}
				}
			}
		}
	}
	JOINT LeftUpLeg
	{
		OFFSET 9.98441 0.00000 0.00000
		CHANNELS 3 Zrotation Xrotation Yrotation
		JOINT LeftLeg
		{
			OFFSET 0.00000 -42.11800 0.00000
			CHANNELS 3 Zrotation Xrotation Yrotation
			JOINT LeftFoot
			{
				OFFSET 0.00000 -45.00070 0.00000
				CHANNELS 3 Zrotation Xrotation Yrotation
				JOINT LeftForeFoot
				{
					OFFSET 0.00000 -3.74824 0.00000
					CHANNELS 3 Zrotation Xrotation Yrotation
					JOINT LeftToeBase
					{
						OFFSET 0.00000 0.06325 14.43110
						CHANNELS 3 Zrotation Xrotation Yrotation
						End site
						{
							OFFSET 0.00000 0.00000 0.00000
						}
					}
				}
			}
		}
	}
}
MOTION
Frames: 4
Frame Time: 0.050000
0.020143749890803857 -0.005784633037523441 0.04023124925405536 0.005519586815309975 0.0024719710073973834 -0.006285130805679988 4.403695503627867 3.0215399891579335 -2.09240139817062 -0.7235221357846554 3.556714493670758 0.42722995393465024 -0.6455559707729532 -1.3040516343916881 0.6510634162863081 -0.4220756386054622 -0.524603493910666 -0.3490576636264712 0.24627006325505438 13.382348993019331 -2.025622461729062 0.4240261268149165 -0.015725604531074862 -4.632411267322481 1.1425222070186838 -16.032147328100073 -0.40549609715739554 -11.158018652161674 3.73773623633075 -17.116264928914244 78.44249019852947 -4.127142351369266 19.96916640798246 11.446186316404713 3.876896529326383 80.39802600520824 13.132390050776836 -0.3287322886068842 -1.6163262588429022 4.5530191208386395 -0.14661456758824862 -1.5960201561439924 -0.04431625588865872 0.025513388829352147 -56.27831909359216 0.002634179822691378 0.023702213330373548 -56.25129432965266 -38.80752821665291 0.0372033811875214 0.0007171638977097503 0.010540758906153093 -0.043740916512819104 -0.04172067717998777 0.03695595402668012 -0.010091614784025217 -0.04236635223569747 -36.73130190103392 0.01539564800519688 -0.03166481089518914 -0.04629494406251555 -0.010165412235334872 0.028902389281763217 0.042701920920716584 0.019330385274933897 0.036625297905773554 -19.767253380559037 -0.04201948129364385 0.04446213691847529 0.010394482935758 0.031008718131806546 -0.01250924027246573 0.008451090682115763 0.01527220279829319 0.02146253646029852 24.051167574968883 0.041213639275469637 -0.001642916613721848 28.866161796195943 0.038820175231866365 0.04645577484132195 28.877589221968023 0.021282841209058833 -0.01698432340492312 11.055941548211054 2.578098134674958 14.525238478980242 -69.91960598487884 12.303468332284723 -22.893431427457397 -5.215197168869203 -1.3872835231354517 -84.3399797218649 -15.360582759394415 -0.41723940647607627 -2.144101905294043 -0.46357288616693154 0.06768165482651747 -8.09560195595147 -0.004512199220078257 -0.016804685106919584 44.57211728041582 0.0383481260636178 -0.022478099296787766 44.58052390475238 12.439758619390872 -0.039461290345330344 -0.008217474382304432 -0.03383798097236717 -0.0442118673571309 0.022017410942865176 0.014017115683354552 0.0031728988798776178 0.02274059175055526 11.093962559795724 0.021071271676591053 0.011899553758537235 0.04315595993959327 0.02779760383453501 -0.04920341804439956 0.021038638988960818 0.04542522736418104 0.022089197804606723 4.784760333298753 0.011782343945720388 0.0070184458463609855 0.032814759170975025 0.03627209358450184 -0.01812480339536443 0.03661703788259567 -0.018377962721029036 -0.04249467374804329 -5.636000604119493 0.02196794329670212 0.013137667404786026 -6.694058868990235 -0.0334754718071595 -0.04711665125081221 -6.719711221682135 -0.040537525936424346 -0.026772978955577287 0.04288487499826834 -0.007827304190803056 0.009291356326670898 8.04800314538971 3.5095204204955524 -19.21459317374438 0.022878483215990113 10.419089210356786 0.059925877502629815 -5.653421817358791 -15.667783931631476 3.1532445738477706 0.021288430920059612 0.01113536631723152 0.008132610255353166 -0.000803811002643362 4.716893236392795 -0.03592106915228836 12.42725067028614 -8.222979222913727 6.905890664754285 -0.02787165122601172 46.41007625768567 -0.012550004388760036 -4.313329294876355 -14.722771705874871 -3.8303359741070384 0.032508320264468 0.030532705128572393 -0.04444812624718931 -0.0246685642052888 -10.778438573589918 -0.03115598131059391 
-0.026600464549359215 -0.010861935445339616 0.004895237281816786 -0.04233994839257914 0.0075849327289264626 0.02662254068021508 4.522352161156694 2.820887071186687 -2.091638392268112 -0.7025458856543735 3.542611829388148 0.3961245586267348 -0.6859104956810957 -1.3316409130286597 0.6836189149163068 -0.46630095304964636 -0.5446991241884295 -0.2923244322396623 0.13629461846048394 13.722138279309906 -1.7502348412364408 0.45296886152182275 0.21727241698607577 -3.8886733435513667 1.0112467800661742 -15.775062733773135 -0.29971652817276656 -11.747702576589141 3.875751405168326 -16.828081244934474 78.74302923945189 -5.073395989286924 24.30451885523644 13.512044120473139 3.3237006912543126 84.59342642542614 12.35942250335005 -0.34180915310571813 -1.499453988189906 4.5232501683527975 -0.09112304720842643 -1.6119362318858514 -0.021735027355631768 -0.039245007726367014 -56.20186019698233 -0.03067275590564713 0.015146771031002287 -56.24007630906232 -38.77483943445836 -0.006635358230774741 0.004107247971063282 0.03112070173443298 -0.0036221408761843363 -0.026889242105659537 -0.017679500665992873 0.04144293574581633 0.021601666638934095 -36.73038623320512 -0.02117366868937903 -0.011896379911709769 -0.030508184358835386 -0.003466893155423269 -0.03910071850829598 0.0268996049841914 -0.041522977423118466 0.009360366680450871 -19.761741683915723 -0.04825546649700056 0.04830125919308368 -0.022360873729792074 0.028586110208377886 -0.03284868965163726 0.027787994171897198 -0.03245042845596999 -0.010164320093995573 24.03913965864525 0.018909708441356445 -0.03259525284630919 28.845350648696478 -0.008691595561555458 -0.025118852344188276 28.856501706454484 0.02395645235243068 0.0008696655845884178 11.880698753682776 2.707489475416837 14.297784446756028 -70.02965147023299 12.093858883011066 -27.559336825424893 -3.972025880737611 -3.1782653189429357 -89.30592777735922 -13.532975064365194 0.18112022050002308 -3.2086863704997373 -0.4424348602063217 0.043070352150731996 -8.167292400070416 -0.02134024654099268 0.0348517390257817 44.59027169856875 -0.04712440760309473 0.016110640277831188 44.53048106435025 12.46438594173513 -0.022276645174635536 -0.011763317635207063 -0.01725276882736248 -0.04139633804167545 -0.005555284437762318 0.013646267780245759 0.017715581980048935 0.0075161380878337675 11.105381929213443 -0.028146151573683345 0.018556266622612318 0.03705553153010134 0.001940368823157559 0.030954724597511543 0.022659411364478656 0.03701117861141064 0.022568460856912144 4.731948596175255 -0.0031162506285500624 0.04602989464338496 0.008592016223921126 0.019649831305050422 0.04561365037891048 0.03929860754647313 0.016825531201927948 0.03673379590407837 -5.6304421212456965 -0.01616755322366035 0.005692483534039527 -6.74896401252306 -0.013672263386644993 -0.04079043360241699 -6.691561331445895 -0.0065018920257684815 -0.03737423870066401 0.047094042417391006 -0.03690284224480892 0.035990372299454114 8.056290388418896 3.451706181906039 -19.18708907190139 -0.03662000295893271 10.438197166662704 0.008363588911820777 -5.6668230037607 -15.696234423642546 3.2116573676690776 0.026286873782818205 -0.014123296495315818 -0.0495461923755353 0.02501754226923141 4.696325679416061 0.017071449960252706 12.434719578582824 -8.200228180771846 6.8923176769366 0.03240306537616916 46.40293868970314 0.027078995087425825 -4.339487155293752 -14.754954364839813 -3.8634732936531844 0.008608096593505714 0.02895780780884525 0.03690762590669649 0.03936941889333591 -10.727066499459696 -0.03717489829769493 
0.008634092269653369 0.015082789598894914 0.003188298559852121 -0.02619418840712627 0.02785544506885314 0.04497473827135964 4.623270064655573 2.5831683624074686 -2.1120603798433586 -0.6992046466486849 3.475343608291355 0.3568394920388619 -0.6227000626506684 -1.4579389765635966 0.5311332895917095 -0.5136195031385342 -0.5420563802320564 -0.3657104592837314 0.07633697898138092 14.002287831468596 -1.4792630583080448 0.4240612612797433 0.37839513101341465 -3.0264657681330562 0.9849790539609252 -15.467850351505286 -0.2958149206202302 -12.127894465858377 4.073563086086353 -16.57937616061509 78.90967839411454 -5.538238312459248 27.05855861642517 14.141523073954955 2.800443585294972 87.13694052980088 11.700837557509129 -0.2915655433433815 -1.2702530121424271 4.538347345901639 -0.0995319495220045 -1.5678228135549195 0.020912497530292076 -0.011076824162218817 -56.25849454930079 -0.02159934279033174 -0.021861286317901237 -56.28015221727065 -38.79673859513785 -0.0024236652741965155 0.03331291286962841 0.025128908430021073 -0.0038026164793286505 -0.03876064388903786 0.00044745567289240996 -0.005963063304191511 0.029277172408215993 -36.70687440418991 0.02291959741945132 0.022162579562376085 -0.016042218933368307 -0.017287013752182685 0.01942504039466005 -0.03885277361918272 0.0410636763532326 0.048638881927819386 -19.758927394933142 -0.04571304860772941 -0.005961569063402794 -0.007444754874403551 0.02500500700394858 -0.02817345475853258 0.013066452772258676 -0.009529125854709667 -0.003186972239685411 24.012594563302113 0.04751914820305673 -0.02027268607406988 28.869503629807934 0.033262619486860844 0.028619917592073604 28.848083855550893 0.03677770327357615 -0.038083862131489496 12.581716935530682 2.9200735663281288 14.164398233125041 -70.22831692546882 11.748069697634605 -31.85196257456412 -2.132347450241904 -4.59398187810169 -92.75823594020007 -11.706166315083436 0.9055212147094989 -4.3053582437640605 -0.4844199768799283 0.06405760131577834 -8.079582328773599 0.03150245469995616 -0.0033375543529910504 44.560437583458594 -0.019650850712486966 -0.022167965785898445 44.524244233382 12.460913853504236 -0.03382576517003514 -0.033112790535629134 0.04001970702105034 0.033213906302667594 -0.004754404966922864 0.008529926078747899 -0.023313528869674034 0.03436286862870497 11.082185706735295 0.017895874122933367 -0.020649952281031673 0.016910263940826765 -0.027268587228654658 0.028534777249903054 0.027734908880328375 -0.03562283174048093 0.009420187434826852 4.744030338597594 -0.04648763871753302 0.007664166614101029 -0.014129085487353768 0.003678913095417729 0.042697390991394114 0.041560477101397535 -0.01593424999539006 0.013494018898383963 -5.602146266965296 -0.030876112804377825 -0.041744806446670064 -6.728973853524334 -0.005284873765326854 0.013545342008885733 -6.725137919603209 0.007733101014087662 -0.024698304022480577 -0.016024345164267442 0.030303251882237387 -0.024779913776583007 8.072073778416645 3.52556053193921 -19.228114555205366 -0.026074681788322167 10.440098207686258 0.06416280008303596 -5.595603552278092 -15.668181738527105 3.1862252099496238 -0.00935733078439547 0.03533368285680676 0.04264392048496651 -0.013284818565967301 4.650586965558848 0.045885897829974986 12.484628733309167 -8.275574678486825 6.87513370955654 0.033437224114114025 46.42351816120003 -0.03956449021029084 -4.279910514071601 -14.73996112301976 -3.86079129968759 -0.0428221098478928 -0.025218389061906838 0.027018744561232884 0.035579446963648766 -10.773395725675002 0.023250188945296107 
0.03805641729523704 -0.02739259277128596 -0.016403092480810417 0.04113145289618443 0.01893355906282776 0.03939144783260725 4.626591690806303 2.428215116609408 -2.157553341002007 -0.6983351824493407 3.4621596856154646 0.41836775772776985 -0.6257120857263528 -1.438135466002109 0.4450242156176117 -0.5380409239364308 -0.5564038619297313 -0.37138806264940993 -0.04348750924695388 14.213398579879966 -1.2958574322195997 0.4611968462775018 0.45483929925035604 -2.3671421143306266 0.8696002461342557 -15.295168775645084 -0.20914246960292987 -12.168378001503122 4.056050200037576 -16.37378654733963 79.07592835664246 -4.873001448036265 29.07014671701403 13.363714375746959 2.348404374431625 88.834425749402 11.095065747945604 -0.24284339087882637 -1.0377297366951674 4.560195673085197 -0.12090014130143373 -1.584206229925737 0.0018561118602642699 0.011086059888426479 -56.23362974573681 -0.02841432519741708 -0.0029410594224730064 -56.28351302580338 -38.728687112291695 0.03461875360526198 0.02199394916505746 0.045852890239189155 0.04466405360563635 -0.031532998490257036 -0.0014099410677211122 0.014229428971776883 0.040437121296157834 -36.661118142170146 0.013580926823336267 0.04531878205309189 0.029690811247547376 -0.02716673764483618 0.020774811252471798 -0.020368948680183414 -0.025947304199929983 -0.04489909151454703 -19.748063435714847 -0.034439027823509764 0.00044446829295446017 0.03831490633181178 -0.0163013724835289 0.01979739958558116 -0.019243116079165408 0.0019995380060339454 -0.013156512693833779 24.095634170776133 -0.0004643903329520335 0.01753250167341525 28.897107908481196 -0.0015717808038880768 0.016442099408750594 28.853415703992656 -0.00402955059116034 -0.01520570681376553 13.129975495235957 3.012294015374974 13.961446204066375 -70.6948648973023 11.809037492711434 -36.20326652077681 0.5244626575097407 -5.847230180035151 -95.17948948379012 -9.932359955829414 2.1059013210306348 -5.554087702057171 -0.4710950246602975 0.07324904653917728 -8.140853868126078 0.034818352185704136 0.0009729398712924863 44.60805910500779 -0.033176983972139 -0.02307453460903166 44.53989662281662 12.493174022085908 0.0075295594671998525 0.020001957600237676 -0.040540156180633065 -0.028429935287502768 0.04253197030397074 -0.011987567557459914 -0.039571133016989106 -0.008111581798569271 11.062011692329513 -0.0011019418719167438 0.01445319083914608 -0.003602058408671025 0.0006215890066265955 0.016523622874407815 0.008398832109708565 0.04411527309072664 -0.043293990533661716 4.7662932241241105 0.009821980757472057 0.04804600515125036 0.03308867693497572 0.04498530833287566 0.011451902900318531 -0.028203937697351106 -0.026973521077592377 0.020716374256995615 -5.596319944145197 0.013315654022860387 -0.04394346627433097 -6.766265827794985 0.03630960826675002 0.025047232968261692 -6.6728396626900315 0.049767144761010865 -0.04072333532666282 0.03664014488273467 0.041069730436471025 -0.0014514111991609244 8.004788604328 3.5363322838669453 -19.17554651642813 -0.008768728920532747 10.375232936553076 0.04108106559065794 -5.646504461749706 -15.660654464890246 3.2366829517519315 -0.005756646428270019 -0.030200471170140613 0.021856771160334798 0.024563773711166782 4.682098580358543 0.0474355790599407 12.453126227034739 -8.212544106216752 6.858368628555369 0.0018311411546364487 46.40761924808876 -0.044854806284352323 -4.367217714802637 -14.793460954234517 -3.857803069434069 0.005049639215384655 -0.006415562945325731 -0.02970308092268936 0.023028228693060256 -10.71975881253471 0.04778852374946375 
